HIERARCHY
ROOT Hips
{
	OFFSET 0.00000 0.00000 0.00000
	CHANNELS 6 Xposition Yposition Zposition Yrotation Zrotation Xrotation 
	JOINT Lumbar
	{
		OFFSET 0 0 0
		CHANNELS 3 Zrotation Xrotation Yrotation
		JOINT Neck
		{
			OFFSET 0.00 0.2701 0.00
			CHANNELS 3 Zrotation Xrotation Yrotation
			End Site
			{
				OFFSET 0.00 0.1379 0.00
			}
		}
		JOINT RightShoulder
		{
			OFFSET 0.0119 0.2289 0.1181
			CHANNELS 3 Zrotation Xrotation Yrotation
			JOINT RightElbow
			{
				OFFSET 0.00 -0.1475 0.00
				CHANNELS 2 Zrotation Yrotation
				JOINT RightWrist
				{
					OFFSET 0.00 -0.1605 0.00
					CHANNELS 2 Zrotation Xrotation
					End Site
					{
						OFFSET 0.0040 -0.1068 0.0006
					}
				}
			}
		}
		JOINT LeftShoulder
		{
			OFFSET 0.0119 0.2289 -0.1181
			CHANNELS 3 Zrotation Xrotation Yrotation
			JOINT LeftElbow
			{
				OFFSET 0.00 -0.1475 0.00
				CHANNELS 2 Zrotation Yrotation
				JOINT LeftWrist
				{
					OFFSET 0.00 -0.1605 0.00
					CHANNELS 2 Zrotation Xrotation
					End Site
					{
						OFFSET 0.0040 -0.1068 -0.0006
					}
				}
			}
		}
	}
	JOINT RightHip
	{
		OFFSET 0.0316 -0.0424 0.0458
		CHANNELS 3 Zrotation Xrotation Yrotation
		JOINT RightKnee
		{
			OFFSET 0.00 -0.2438 0.00
			CHANNELS 1 Zrotation
			JOINT RightAnkle
			{
				OFFSET 0.00 -0.2449 0.00
				CHANNELS 3 Zrotation Xrotation Yrotation
				End Site
				{
					OFFSET 0.1237 -0.0542 0.0051
				}
			}
		}
	}
	JOINT LeftHip
	{
		OFFSET 0.0316 -0.0424 -0.0458
		CHANNELS 3 Zrotation Xrotation Yrotation
		JOINT LeftKnee
		{
			OFFSET 0.00 -0.2438 0.00
			CHANNELS 1 Zrotation
			JOINT LeftAnkle
			{
				OFFSET 0.00 -0.2449 0.00
				CHANNELS 3 Zrotation Xrotation Yrotation
				End Site
				{
					OFFSET 0.1237 -0.0542 -0.0051
				}
			}
		}
	}
}
MOTION
Frames: 22
Frame Time: 0.02
0.00085 0.00015 0.00044 -177.35841 -46.86505 0.8091 55.20607 0.14921 0.27049 -12.48183 -0.14648 -0.34678 153.99175 -78.5272 -59.90901 16.41004 80.86536 1.72506 -6.17284 158.80385 73.7054 74.74779 11.98134 -78.30256 1.63804 7.64911 52.30325 -1.66964 -14.2475 -19.16409 -7.34323 -3.20877 -3.85583 55.39045 3.15329 9.98104 -24.16104 -7.89364 3.19668 3.85129
0.00026 0.00012 0.00085 -177.33225 -46.79293 0.78279 55.29856 0.10464 0.15653 -12.6355 -0.1287 -0.35225 154.49486 -78.53855 -59.31581 16.45636 80.84979 1.66393 -6.27672 158.777 73.76801 74.70077 11.99392 -78.30101 1.63017 7.73604 52.14523 -1.69875 -14.36883 -19.14342 -7.33525 -3.20948 -3.85302 55.25969 3.08039 9.74045 -24.16104 -7.89472 3.21866 3.86203
-0.00033 8e-05 0.00127 -177.30629 -46.72096 0.75652 55.39088 0.0602 0.04292 -12.7888 -0.11099 -0.35771 154.99655 -78.54989 -58.72416 16.50251 80.83426 1.60294 -6.38025 158.75028 73.83048 74.65371 12.00643 -78.29946 1.62229 7.82269 51.98758 -1.72773 -14.48958 -19.12283 -7.32731 -3.2102 -3.85024 55.12916 3.0078 9.50095 -24.16104 -7.89575 3.24056 3.87271
-0.00092 5e-05 0.00168 -177.28023 -46.64904 0.73028 55.4831 0.01576 -0.07069 -12.94201 -0.09327 -0.36317 155.49813 -78.56122 -58.13273 16.54868 80.81874 1.54198 -6.4838 158.72352 73.8929 74.6068 12.01896 -78.29792 1.61444 7.90935 51.83002 -1.75674 -14.61049 -19.10222 -7.31935 -3.21091 -3.84744 54.99877 2.93514 9.26114 -24.16103 -7.89681 3.26248 3.88341
-0.00151 1e-05 0.00209 -177.25393 -46.57701 0.70404 55.57544 -0.02877 -0.18464 -13.09555 -0.07549 -0.36863 156.00107 -78.57255 -57.53986 16.59504 80.8032 1.48089 -6.5877 158.69663 73.95542 74.56001 12.03158 -78.29637 1.60662 7.99631 51.67214 -1.78589 -14.73207 -19.08153 -7.31137 -3.2116 -3.84463 54.86823 2.86216 9.02011 -24.16102 -7.89794 3.28448 3.89416
-0.0021 -2e-05 0.0025 -177.22866 -46.50518 0.6777 55.6677 -0.07303 -0.29755 -13.24835 -0.05793 -0.37408 156.50011 -78.58391 -56.95082 16.64075 80.78769 1.42012 -6.69048 158.67026 74.01779 74.51238 12.04384 -78.29483 1.5986 8.0823 51.51498 -1.81451 -14.85106 -19.06117 -7.30349 -3.21238 -3.8419 54.73774 2.79036 8.78386 -24.16103 -7.89877 3.30614 3.90471
-0.00269 -6e-05 0.00291 -177.20136 -46.43302 0.65157 55.76002 -0.11781 -0.41242 -13.40247 -0.03995 -0.37955 157.00644 -78.59519 -56.35472 16.68769 80.77213 1.35879 -6.79538 158.64285 74.08041 74.46649 12.05681 -78.29328 1.59099 8.17012 51.35655 -1.84418 -14.97512 -19.04016 -7.29542 -3.21299 -3.839 54.60727 2.71627 8.53824 -24.16101 -7.90019 3.32849 3.91565
-0.00328 -9e-05 0.00333 -177.17592 -46.36116 0.62525 55.85229 -0.1621 -0.52548 -13.55536 -0.02235 -0.385 157.50605 -78.60656 -55.76514 16.73354 80.75661 1.29795 -6.89837 158.61643 74.14279 74.41901 12.06913 -78.29173 1.583 8.25629 51.19928 -1.87287 -15.09452 -19.01973 -7.28752 -3.21375 -3.83626 54.47679 2.64431 8.30129 -24.16101 -7.90106 3.35019 3.92623
-0.00387 -0.00013 0.00373 -177.15282 -46.28963 0.59869 55.94455 -0.20582 -0.63638 -13.70688 -0.00523 -0.39044 157.9977 -78.61798 -55.18318 16.7779 80.74118 1.23778 -6.99889 158.59112 74.20493 74.36944 12.08062 -78.29021 1.57457 8.34032 51.04337 -1.90041 -15.20816 -19.00007 -7.27985 -3.2147 -3.83373 54.34622 2.57487 8.07478 -24.16104 -7.90128 3.37115 3.93637
-0.00446 -0.00016 0.00416 -177.11647 -46.21608 0.5735 56.03703 -0.25291 -0.75988 -13.86668 0.01463 -0.39598 158.53591 -78.62893 -54.55631 16.83038 80.72532 1.17394 -7.11319 158.55911 74.26859 74.33146 12.09679 -78.28861 1.56871 8.43631 50.87947 -1.9347 -15.35476 -18.97617 -7.2709 -3.21456 -3.83001 54.21593 2.49067 7.78772 -24.16092 -7.90531 3.3965 3.94903
-0.00504 -0.0002 0.00455 -177.10793 -46.14688 0.54541 56.12889 -0.29285 -0.85668 -14.00874 0.02871 -0.4013 158.97534 -78.64101 -54.02494 16.86603 80.71035 1.11773 -7.19869 158.54144 74.32896 74.26934 12.10315 -78.28713 1.55743 8.5073 50.73253 -1.95467 -15.43195 -18.96111 -7.26464 -3.21673 -3.82878 54.08522 2.43775 7.62868 -24.16111 -7.90128 3.41252 3.95637
-0.00558 -0.00025 0.00484 -177.17741 -46.08907 0.50936 56.22034 -0.3132 -0.88038 -14.10391 0.02656 -0.40618 159.14551 -78.6552 -53.75186 16.85246 80.69785 1.08356 -7.20204 158.56181 74.38111 74.13748 12.0819 -78.28629 1.53106 8.50689 50.63185 -1.93556 -15.31584 -18.9714 -7.26587 -3.22523 -3.83453 53.95184 2.47026 7.82205 -24.16226 -7.87494 3.40328 3.94916
-0.0061 -0.00029 0.0051 -177.27445 -46.03575 0.47042 56.31088 -0.32636 -0.87723 -14.18091 0.01866 -0.41083 159.21611 -78.67074 -53.57539 16.82254 80.68625 1.05688 -7.17696 158.59686 74.42982 73.98186 12.05095 -78.28551 1.49928 8.48183 50.54832 -1.90205 -15.13064 -18.99037 -7.26977 -3.23604 -3.84274 53.81838 2.5342 8.14355 -24.16371 -7.84055 3.38462 3.93661
-0.00662 -0.00034 0.00537 -177.35784 -45.98068 0.43277 56.40102 -0.34279 -0.88622 -14.2651 0.01364 -0.4155 159.33115 -78.6863 -53.35715 16.80214 80.67419 1.02599 -7.16707 158.62597 74.47957 73.83958 12.02486 -78.28454 1.47016 8.46995 50.45707 -1.87495 -14.97885 -19.00465 -7.27237 -3.24578 -3.84971 53.68587 2.58409 8.40593 -24.16494 -7.80993 3.37002 3.92647
-0.00717 -0.00039 0.00565 -177.44625 -45.92425 0.39509 56.49474 -0.3592 -0.89538 -14.35387 0.00753 -0.42055 159.4496 -78.6991 -53.13003 16.77297 80.66229 0.99835 -7.14795 158.65186 74.53151 73.68719 11.99676 -78.28431 1.44026 8.44993 50.36531 -1.84826 -14.81814 -19.02207 -7.27531 -3.25564 -3.85718 53.54926 2.63326 8.67315 -24.16649 -7.77877 3.35628 3.91635
-0.00766 -0.00043 0.0059 -177.53047 -45.87187 0.35695 56.58059 -0.37396 -0.89787 -14.42863 0.00226 -0.42473 159.53713 -78.71807 -52.9444 16.75808 80.65033 0.96593 -7.1408 158.68813 74.57811 73.54938 11.97064 -78.28249 1.41058 8.4407 50.27895 -1.81745 -14.65999 -19.03504 -7.27818 -3.26577 -3.86419 53.42149 2.69113 8.95964 -24.16746 -7.74692 3.33861 3.90495
-0.00802 -0.00047 0.00604 -177.59854 -45.82842 0.31687 56.64669 -0.38586 -0.88811 -14.47069 0.00126 -0.42658 159.56585 -78.75293 -52.84854 16.78762 80.63763 0.91671 -7.17811 158.74765 74.6104 73.46502 11.95153 -78.2767 1.38403 8.46993 50.20105 -1.77774 -14.52292 -19.03329 -7.28015 -3.27627 -3.86936 53.31536 2.76743 9.27639 -24.16671 -7.71438 3.3117 3.89097
-0.00833 -0.00051 0.00615 -177.66102 -45.78913 0.27668 56.70458 -0.39636 -0.87262 -14.49897 0.0012 -0.42755 159.56662 -78.79405 -52.79131 16.83188 80.62493 0.86285 -7.2276 158.81744 74.6375 73.39485 11.9349 -78.26923 1.35776 8.51028 50.12845 -1.73458 -14.39132 -19.02682 -7.28196 -3.28692 -3.87396 53.21868 2.85101 9.60654 -24.16539 -7.68158 3.28131 3.87594
-0.00865 -0.00056 0.00628 -177.72465 -45.74867 0.23743 56.76512 -0.40757 -0.86003 -14.5326 0.00035 -0.4289 159.57862 -78.83288 -52.71707 16.86878 80.61248 0.81217 -7.26861 158.88372 74.66721 73.3133 11.91765 -78.2622 1.33046 8.54392 50.05485 -1.69371 -14.25923 -19.02271 -7.28385 -3.29737 -3.87879 53.11945 2.92988 9.92495 -24.16438 -7.64943 3.253 3.86161
-0.009 -0.0006 0.00641 -177.79513 -45.70524 0.1943 56.83026 -0.41823 -0.84529 -14.56958 0.00082 -0.43032 159.59291 -78.86959 -52.64378 16.90807 80.59895 0.75686 -7.32112 158.94564 74.6957 73.25153 11.8979 -78.25647 1.30641 8.58406 49.97575 -1.64935 -14.11657 -19.01803 -7.28575 -3.30844 -3.88383 53.01269 3.01575 10.27154 -24.16317 -7.61476 3.2223 3.84615
-0.00929 -0.00064 0.00651 -177.8496 -45.66904 0.15931 56.88379 -0.42976 -0.83396 -14.5964 -0.00115 -0.4314 159.59766 -78.91196 -52.57659 16.94594 80.58773 0.71046 -7.35288 159.01885 74.72558 73.15252 11.88412 -78.24774 1.27623 8.61315 49.90935 -1.61156 -13.99777 -19.01329 -7.28759 -3.31824 -3.88828 52.92406 3.08838 10.56114 -24.16223 -7.58539 3.19583 3.83285
-0.00941 -0.00067 0.00654 -177.86173 -45.65079 0.1465 56.90793 -0.44455 -0.83394 -14.5999 -0.01021 -0.43169 159.5783 -78.97019 -52.5148 16.97743 80.58226 0.68566 -7.32503 159.12093 74.76021 72.94523 11.88586 -78.23027 1.22467 8.61337 49.87477 -1.59331 -13.94715 -19.00952 -7.28906 -3.32431 -3.89109 52.88143 3.12219 10.68751 -24.16224 -7.57077 3.18218 3.8259
